<svg
  t="1623034538677"
  class="icon"
  viewBox="0 0 1219 1024"
  version="1.1"
  xmlns="http://www.w3.org/2000/svg"
  p-id="15249"
  width="128"
  height="128"
><path
    d="M1209.574137 0H27.374573l73.529375 118.410942a43.608331 43.608331 0 0 1 0 46.473111L0 326.903326l100.903948 162.019273a43.608331 43.608331 0 0 1 0 46.473111L0 697.096674 100.903948 859.434256a43.92664 43.92664 0 0 1 0 46.473111L27.056264 1024h1180.926328a11.459123 11.459123 0 0 0 11.459124-11.459123V11.459123A11.459123 11.459123 0 0 0 1209.574137 0zM214.221946 856.569475V604.787069a43.608331 43.608331 0 1 1 87.216661 0v250.827479a43.608331 43.608331 0 0 1-87.216661 0z m87.216661-438.311471a43.608331 43.608331 0 1 1-87.216661 0V167.430525a43.608331 43.608331 0 1 1 87.216661 0z m638.209512 152.151694a43.608331 43.608331 0 1 1 0 87.216662h-154.061548v118.410942a43.608331 43.608331 0 1 1-87.216661 0v-118.729251h-153.42493a43.608331 43.608331 0 0 1 0-87.216662H700.279764v-66.208268h-155.334784a43.608331 43.608331 0 1 1 0-87.216662h112.68138L541.125272 275.973889a43.608331 43.608331 0 0 1 66.844887-56.022381l139.101025 165.83898 139.101026-165.520671a43.608331 43.608331 0 0 1 66.844887 56.022381l-120.002487 140.69257h106.951818a43.608331 43.608331 0 1 1 0 87.216662h-154.061548v66.208268z"
    p-id="15250"
  /></svg>
