<svg
  t="1623032902584"
  class="icon"
  viewBox="0 0 1024 1024"
  version="1.1"
  xmlns="http://www.w3.org/2000/svg"
  p-id="6910"
  width="128"
  height="128"
><path
    d="M0 1024l512 0 0-1024-512 0 0 1024zM320 128l128 0 0 128-128 0 0-128zM320 384l128 0 0 128-128 0 0-128zM320 640l128 0 0 128-128 0 0-128zM64 128l128 0 0 128-128 0 0-128zM64 384l128 0 0 128-128 0 0-128zM64 640l128 0 0 128-128 0 0-128zM576 320l448 0 0 64-448 0zM576 1024l128 0 0-256 192 0 0 256 128 0 0-576-448 0z"
    p-id="6911"
  /></svg>
