<svg
  t="1623034266408"
  class="icon"
  viewBox="0 0 1024 1024"
  version="1.1"
  xmlns="http://www.w3.org/2000/svg"
  p-id="12879"
  width="128"
  height="128"
><path
    d="M180.6 379.5h434.5c33.7 0 37.9-4.7 38.4-38.9 0.6-40.2-0.2-80.6 3.4-120.6 4.1-44.7 36.6-65.5 76.6-53.5 20.1 6 30.5 20.5 34.4 39.8 2.3 11.4 2.9 23.4 2.9 35.1 0.2 177.1 0.3 354.3 0 531.4-0.1 42.5 0.7 84.3 32.4 121.2-9.8 0.4-16.3 1-22.8 1-158.4 0.2-317-1-475.6 1-85.9 1.1-124.6-58.1-124.3-125 0.4-110.9 0.1-221.7 0.1-332.6v-58.9z m295.3 266.3c-49 0-97.9-0.1-146.9 0-25.4 0.1-40.1 10.8-40 28.7 0.1 18.1 15 29.4 39.6 30h5.6c94.8 0 189.6 0.1 284.4-0.1 8 0 16.4-0.3 23.8-2.7 13.8-4.4 21.4-14.8 20.4-29.6-1-14.2-10.6-22-23.5-25.3-5.9-1.5-12.3-1.1-18.5-1.1-48.3 0.1-96.6 0.1-144.9 0.1z m-0.9-95.9c51.4 0 102.8 0.3 154.3-0.1 21-0.2 34.1-12.1 33.8-29-0.2-16.1-12.8-28.6-32.5-28.7-102.8-0.4-205.7-0.4-308.5 0.2-8 0-19.3 3.1-23.1 8.7-5.5 8.1-8.8 20.6-7 30 2.8 14.6 16.7 18.8 30.5 18.9 50.9 0.1 101.7 0 152.5 0z"
    p-id="12880"
  /><path
    d="M716 127.7c-57.4 16.3-84.3 48.1-90.3 104.1-2 18.4-2.5 37-3 55.6-0.5 17.9-0.1 35.7-0.1 55.3-7.1 0.4-13 1-18.9 1-153.5 0.1-307 0.1-460.5 0-27.2 0-28-0.9-28.1-28.3 0-31-0.1-61.9 0-92.9 0.2-61.1 33.9-94.6 95.7-94.7 151-0.1 302.1 0 453.1 0 15.9-0.1 31.8-0.1 52.1-0.1zM802.3 646.7c33.3 0 64.8-0.9 96.1 0.8 5.8 0.3 15.6 11.4 15.7 17.7 1 51.3 1.6 102.7-0.7 153.9-1.7 38.6-25.2 56.8-62.6 54.1-18.4-1.3-32.2-10.1-38.7-27-4.8-12.5-9.1-26.1-9.3-39.3-1.1-52.4-0.5-105-0.5-160.2z"
    p-id="12881"
  /></svg>
